<svg height="79.529" viewBox="0 0 79.527 79.529" width="79.527" xmlns="http://www.w3.org/2000/svg"><g fill="#b3c867" transform="translate(-.007)"><path d="m76.822 20.988a5.908 5.908 0 0 0 -8.164 1.775l-1.274 1.982-7.427 11.555v-34.747a1.553 1.553 0 0 0 -1.557-1.553h-56.84a1.553 1.553 0 0 0 -1.553 1.553v56.162a1.553 1.553 0 0 0 3.107 0v-54.608h53.736v38.025l-9.388 14.605a1.57 1.57 0 0 0 -.218.544l-1.191 6.143a3.893 3.893 0 0 0 -2.057-.146 7.326 7.326 0 0 0 -3.045 1.41c-.034-.522-.083-1.047-.144-1.612a4.889 4.889 0 0 0 -1.957-3.613c-2.273-1.561-5.026.275-5.93.877a23.11 23.11 0 0 0 -7.272 8.012 1.553 1.553 0 1 0 2.715 1.51 19.991 19.991 0 0 1 6.281-6.937c1.77-1.181 2.322-.988 2.448-.9a2.044 2.044 0 0 1 .628 1.388 23.583 23.583 0 0 1 .025 5.547 1.553 1.553 0 0 0 2.947.819 6.332 6.332 0 0 1 3.876-3.447c.32-.06.5 0 .533.171a15.048 15.048 0 0 1 -.091 2.305 1.569 1.569 0 0 0 2.522 1.5l9.321-6.65v13.764h-53.739v-5.038a1.553 1.553 0 1 0 -3.107 0v6.592a1.553 1.553 0 0 0 1.553 1.553h56.84a1.553 1.553 0 0 0 1.553-1.553v-19.825l17.37-27.016 1.277-1.982a5.915 5.915 0 0 0 -1.775-8.164zm-5.551 3.455a2.8 2.8 0 0 1 4.713 3.03l-.434.675-4.713-3.03zm-22.471 40.141.966-4.983.093-.478 1.735 1.115 1.735 1.115-1.554 1.109zm8.3-7.733-1.473 2.289-4.712-3.029 8.795-13.681v-.007l9.443-14.691 4.713 3.03z"/><path d="m85.314 46.93h-17.284a1.553 1.553 0 0 0 -1.553 1.553v19.617a1.553 1.553 0 0 0 1.553 1.553h17.284a1.553 1.553 0 0 0 1.554-1.553v-19.617a1.553 1.553 0 0 0 -1.554-1.553zm-1.553 3.107v11.117a9.621 9.621 0 0 0 -2.714-1.479 5.242 5.242 0 1 0 -8.751 0 9.613 9.613 0 0 0 -2.712 1.478v-11.116zm-7.088 8.89h-.014a2.136 2.136 0 1 1 .025 0zm-6.944 7.624a4.916 4.916 0 0 1 1.4-2.629c2.019-1.959 5.421-1.891 5.494-1.889h.109c.034 0 3.458-.068 5.481 1.884a4.914 4.914 0 0 1 1.406 2.634z" transform="translate(-56.145 -39.64)"/><path d="m236.439 69.927h11.4a1.553 1.553 0 1 0 0-3.107h-11.4a1.553 1.553 0 0 0 0 3.107z" transform="translate(-198.395 -56.441)"/><path d="m236.439 113.877h11.4a1.553 1.553 0 1 0 0-3.107h-11.4a1.553 1.553 0 0 0 0 3.107z" transform="translate(-198.395 -93.564)"/><path d="m236.439 157.826h11.4a1.553 1.553 0 1 0 0-3.107h-11.4a1.553 1.553 0 0 0 0 3.107z" transform="translate(-198.395 -130.686)"/><path d="m68.367 221.85v7.643a1.553 1.553 0 0 0 1.553 1.553h37.263a1.553 1.553 0 0 0 1.553-1.553v-7.643a1.553 1.553 0 0 0 -1.553-1.553h-37.263a1.553 1.553 0 0 0 -1.553 1.553zm3.107 1.553h34.156v4.537h-34.156z" transform="translate(-57.742 -186.078)"/><path d="m96.429 320.36a1.553 1.553 0 0 0 -1.553-1.553h-21.426a1.553 1.553 0 1 0 0 3.107h21.425a1.553 1.553 0 0 0 1.554-1.554z" transform="translate(-60.723 -269.287)"/><path d="m73.45 360.726a1.553 1.553 0 1 0 0 3.107h10.088a1.553 1.553 0 1 0 0-3.107z" transform="translate(-60.723 -304.694)"/><path d="m.312 408.414a1.568 1.568 0 0 0 2.153.429 1.569 1.569 0 0 0 .429-2.154 1.568 1.568 0 0 0 -2.153-.429 1.57 1.57 0 0 0 -.429 2.154z" transform="translate(-.043 -342.939)"/></g></svg>