<svg height="141" viewBox="0 0 84 141" width="84" xmlns="http://www.w3.org/2000/svg" xmlns:xlink="http://www.w3.org/1999/xlink"><clipPath id="a"><path d="m185.348 4689h84v141h-84z"/></clipPath><clipPath id="b"><path d="m0 0h114.898v163h-114.898z"/></clipPath><g clip-path="url(#a)" transform="translate(-185.348 -4689)"><g clip-path="url(#b)" transform="translate(185 4689)"><path d="m101.466 104.573c-12.355 5.638-9.116 31.426-.96 38.143s7.613 10.725 1.165 11.032-6.817 2.579-7.984 2.518.732-17.949-2.147-28.864c-2.355-8.931-2.463-16.576-10.636-19.521q.1-.158.184-.308c2.663-4.606 2.665-6.527 11.391-6.8s17-1.8 19.971-13.584 3.508-24.109.09-24.469-26.626 36.887-28.156 37.787 1.259-9.176 3.149-12.055 6.275-6.567 11.9-13.989 18.217-33.173 11.807-42.844-20.918 13.607-21.031 28.675-3.275 28.1-4.138 28.387 1.655-18.28.648-26.125-1.655-22.67.864-22.6 7.413-1.223 7.341-4.03a3.321 3.321 0 0 0 -.247-1.174c9.118-5.085 19.957-22.612 19.234-27.218-.768-4.894-4.414-2.783-8.444-4.03s-7.293-2.4-7.293 4.126-3.454 19.767-6.333 19 .864-12.571.576-19.1-3.168-8.246-5.375-7.286-7.1-.864-10.364.768-1.727 14.49.1 19.916-3.838 4.17-4.51-3.987-2.352-14.406-4.993-13.423-3.3-2.169-8.959.326-3.55 8.828 1.151 18.712c3.639 7.644 10.989 11.918 14.127 13.458a1.693 1.693 0 0 0 -1.134 1.438c-.138 2.256 4.14 1.448 4.14 1.448s6.837-1.069 7.485 3.424-.012 45.153-.012 45.153-2.339-2.218-2.771-13.445-1.08-23.03-7.557-28.716-4.602 17.784-.788 27.857 4.606 10.507 8.348 13.962 2.447 10.8-1.3 17.56c-.484.874-1 1.706-1.534 2.5a28.542 28.542 0 0 0 -4.327-.547c-11.211-.628-24.3.89-33.1 1.044.456-2.077 1.389-3.6 3.136-4.169 3.93-1.29 10.183-.847 20.869-.725s13.388-4.483 13.327-11.054-2.4-9.877-5.527-9.545-.983 9.294-4.913 13.012-11.3.893-18.3 3.35-8.414 5.65-8.414 5.65-.491-6.94 7.37-8.229 15.046-1.6 17.871-6.141 2.886-7.063 2.825-13.265-.307-5.159-.307-11.914.491-15.23-3.623-17.257c0 0 .983-11.054-4.483-17.5s-24.442-4.852-28.8 1.228 3.869 13.449 16.213 9.888 15.722.921 16.029 3.378.307 2.518.307 2.518-6.264-2.948-16.643-1.9-16.213-1.72-18.792-6.264a33.313 33.313 0 0 1 -3.439-9.524s5.752.1 7.167-1.785a2.375 2.375 0 0 0 .438-1.509c12.124-2.513 15.579-10.966 16.9-15.091 1.412-4.422-1.781-4.606-3.808-6.018s-3.992 0-6.647-1.474-4.84 3.803-5.27 8.655-1.474 8.229-2.948 7.677-.921-4.3-.307-12.59-4.729-7-7.062-6.264-6.94-2.457-8.107 3.193 3.255 16.4 1.658 17.38-4.3-5.466-4.79-9.335-2.825-3.623-4.3-3.132-2.574-.553-4.789.184-1.597 10.87 1.965 15.906c2.561 3.62 7.327 3.856 9.8 3.7.756 2.256 4.5 3.019 8.553 1.007 0 0-.543 9.981 7.22 14.009s16.069 2.213 15.777 3.491-3.537 1.032-6.534 2.8-9.286.54-12.774-4.471-5.586-8.978-13.416-11.972-11.9-8.6-13.05.921 1.919 22.723 19.806 20.42 21.495-.537 24.258-4.222 3.332-3.455 5.85-3.455 11.545-1.719 13.94 2.946 1.736 14.853 2.043 22.223-.23 14.8-3.454 18.07-9.826 2.734-13.741 3.271a24.685 24.685 0 0 0 -6.755 1.919s1.44-4.262 7.434-3.82 13.015-4.849 13.493-11.763 2.783-26.2-3.742-27.06-4.7 10.363-4.7 20.439-8.444 7.389-12.666 13.338-.986 9.83-.986 9.83-3.119 1.684-2.736 8.286c.053.911.1 1.839.148 2.771a28.131 28.131 0 0 1 -5.772-.457c-6.957-1.559-7.778-16.351-6.8-17.887s6.387 1.535 8.414-.491a2.879 2.879 0 0 0 .84-2.409c7.893-2.36 14.6-9.965 16.256-13.234 1.965-3.869 1.351-6.571-.491-9.4s-3.071-.921-5.711-3.009-6.51-1.6-6.556 5.036-2.964 11.181-4.684 11.547-2.334-1.228-.8-6.571.737-11.484-.737-12.344a10.147 10.147 0 0 0 -7.37-.614c-2.886.86-1.044-.184-5.159.307s-3.808 4.3-3.623 9.7 3.316 9.826 1.105 9.949-2.822-10.988-4.419-13.137a4.341 4.341 0 0 0 -5.466-1.535c-1.351.8-1.842 0-4.115 1.351s-1.78 9.211 4.422 15.353a24.394 24.394 0 0 0 9.067 6.084 2.285 2.285 0 0 0 -.12 1.642c.676 2.948 7.492.049 7.554 2.911s-.233 9.513 1.928 13.443 4.766 3.341 4.52 4.471-8.942-.688-11.742-3.341-6.439-25.226-15.343-23.307-3.992 26.331 2.917 29.632 22.953-2.073 27.789-1.535a32.088 32.088 0 0 0 4.194.092 75.177 75.177 0 0 1 -.323 13.18c-.691 4.145-2.687 6.065-10.363 8.137a56.4 56.4 0 0 1 -16.735 1.766c-3.05 0-6.22.06-6.92.074a.582.582 0 0 1 -.143 0h.143c.388-.048 1.45-.455 1.7-3.452.307-3.685 7.6-3.762 17.963-2.61s16.428-9.366 11.438-12.9-27.713-.921-32.012 3.071-1.227 8.8-1.227 8.8 1.818 4.029 1.474 6.043-2.358 1.72-2.506 2.506 3.292.491 3.587 1.867-6.391 18.5-.153 23.055 48.7 4.678 51.458.36 1.679-22.07-12.834-17.872-12.715 13.073-24.71 11.154-13.812-6.921-11.172-10.483-2.027-6.387-1.6-7.554 3.93.123 6.633.307-1.412 8.414 1.9 12.221 14.371 3.255 17.81-3.5 10.256-2.088 10.195-6.694-9.888-8.6-14.555-.491-11.607 9.273-12.1 3.808-.8-5.589-.8-5.589 17.38-1.412 21.31-5.466 4.237-5.9 3.746-12.344a52.106 52.106 0 0 1 -.188-7.43c5.9-.242 14.48-1.162 22.646-1.669 5.309-.33 10.111-.5 14.057.407-3.446 4.638-7.61 8.185-10.966 12.45-3.239 4.118-4.091 6.979-4.377 12.643-1.742-1.128-4.892-4.067-3.474-10.023 1.919-8.06 10.44-7.753 9.749-10.747s-15.277-4.145-20.036 4.069-2.226 18.731 5.834 18.27a33.948 33.948 0 0 1 7.859.137c-.042 1.34-.065 2.829-.089 4.506-.144 10.22-.648 20.871 1.367 21.231s1.008-5.47 1.008-10.723-.648-20.151 1.08-23.39c1.53-2.87 10.576-12.35 14.47-17.678a11.909 11.909 0 0 1 7.009 7.368c3.455 9.212 3.411 12.346 3.433 15.385 0 0 1.842 24.8 1.535 25.87s-5.143-.691-5.067-9.9-1-31.09-5.6-31.4-14.27 7.371-11.278 20.579 9.9 7.139 11.822 15.584 9.032 5.845 9.818 7.3 1.926 1.572 1.769-.432 3.448-4.483 7.056-1.873 9.212 5.45 11.745-1.228 1.719-57.709-10.636-52.071" fill="#b8dcf3" fill-rule="evenodd" transform="translate(0 .002)"/></g></g></svg>